<svg width="89" height="69" viewBox="0 0 89 69" fill="none" xmlns="http://www.w3.org/2000/svg">
<circle cx="61" cy="66" r="3" fill="#D9D9D9"/>
<circle cx="67" cy="51" r="3" fill="#D9D9D9"/>
<circle cx="79" cy="60" r="3" fill="#D9D9D9"/>
<circle cx="83" cy="15" r="3" fill="#D9D9D9"/>
<circle cx="73" cy="3" r="3" fill="#D9D9D9"/>
<circle cx="20" cy="22" r="3" fill="#D9D9D9"/>
<circle cx="70" cy="66" r="3" fill="#D9D9D9"/>
<circle cx="69" cy="58" r="3" fill="#D9D9D9"/>
<circle cx="64" cy="18" r="3" fill="#D9D9D9"/>
<circle cx="37" cy="5" r="3" fill="#D9D9D9"/>
<circle cx="20" cy="37" r="3" fill="#D9D9D9"/>
<circle cx="14" cy="43" r="3" fill="#D9D9D9"/>
<circle cx="30" cy="51" r="3" fill="#D9D9D9"/>
<circle cx="73" cy="16" r="3" fill="#D9D9D9"/>
<circle cx="86" cy="36" r="3" fill="#D9D9D9"/>
<circle cx="37" cy="57" r="3" fill="#D9D9D9"/>
<circle cx="30" cy="66" r="3" fill="#D9D9D9"/>
<circle cx="79" cy="34" r="3" fill="#D9D9D9"/>
<circle cx="58" cy="48" r="3" fill="#D9D9D9"/>
<circle cx="6" cy="40" r="3" fill="#D9D9D9"/>
<circle cx="23" cy="30" r="3" fill="#D9D9D9"/>
<circle cx="60" cy="57" r="3" fill="#D9D9D9"/>
<circle cx="3" cy="30" r="3" fill="#D9D9D9"/>
<circle cx="12" cy="24" r="3" fill="#D9D9D9"/>
<circle cx="67" cy="9" r="3" fill="#D9D9D9"/>
<circle cx="74" cy="53" r="3" fill="#D9D9D9"/>
<circle cx="12" cy="34" r="3" fill="#D9D9D9"/>
<circle cx="80" cy="7" r="3" fill="#D9D9D9"/>
</svg>
