<svg width="100" height="103" viewBox="0 0 100 103" fill="none" xmlns="http://www.w3.org/2000/svg">
<path d="M51.5607 0.93934C50.9749 0.353553 50.0251 0.353553 49.4393 0.93934L39.8934 10.4853C39.3076 11.0711 39.3076 12.0208 39.8934 12.6066C40.4792 13.1924 41.4289 13.1924 42.0147 12.6066L50.5 4.12132L58.9853 12.6066C59.5711 13.1924 60.5208 13.1924 61.1066 12.6066C61.6924 12.0208 61.6924 11.0711 61.1066 10.4853L51.5607 0.93934ZM52 62L52 2H49L49 62H52Z" fill="white"/>
<path d="M98.3997 100.502C99.2224 100.405 99.8104 99.6592 99.713 98.8365L98.1256 85.4302C98.0282 84.6075 97.2823 84.0195 96.4597 84.1169C95.637 84.2144 95.049 84.9602 95.1464 85.7829L96.5574 97.6997L84.6406 99.1106C83.818 99.208 83.23 99.9539 83.3274 100.777C83.4248 101.599 84.1707 102.187 84.9934 102.09L98.3997 100.502ZM49.0714 62.178L97.2948 100.191L99.1519 97.8349L50.9286 59.822L49.0714 62.178Z" fill="white"/>
<path d="M0.514389 97.7927C0.399904 98.6132 0.972224 99.3711 1.7927 99.4856L15.1632 101.351C15.9836 101.466 16.7416 100.893 16.8561 100.073C16.9706 99.2525 16.3982 98.4945 15.5778 98.38L3.6929 96.7217L5.35125 84.8368C5.46574 84.0164 4.89342 83.2584 4.07294 83.1439C3.25246 83.0294 2.49452 83.6018 2.38004 84.4222L0.514389 97.7927ZM50.0961 59.8029L1.09609 96.8029L2.9039 99.1971L51.9039 62.1971L50.0961 59.8029Z" fill="white"/>
</svg>
