<svg width="73" height="73" viewBox="0 0 73 73" fill="none" xmlns="http://www.w3.org/2000/svg">
<path d="M12.5607 0.93934C11.9749 0.353553 11.0251 0.353553 10.4393 0.93934L0.893398 10.4853C0.307612 11.0711 0.307612 12.0208 0.893398 12.6066C1.47918 13.1924 2.42893 13.1924 3.01472 12.6066L11.5 4.12132L19.9853 12.6066C20.5711 13.1924 21.5208 13.1924 22.1066 12.6066C22.6924 12.0208 22.6924 11.0711 22.1066 10.4853L12.5607 0.93934ZM13 62L13 2H10L10 62H13Z" fill="white"/>
<path d="M72.4648 62.0607C73.0506 61.4749 73.0506 60.5251 72.4648 59.9393L62.9189 50.3934C62.3331 49.8076 61.3834 49.8076 60.7976 50.3934C60.2118 50.9792 60.2118 51.9289 60.7976 52.5147L69.2829 61L60.7976 69.4853C60.2118 70.0711 60.2118 71.0208 60.7976 71.6066C61.3834 72.1924 62.3331 72.1924 62.9189 71.6066L72.4648 62.0607ZM10 62.5H71.4042V59.5H10V62.5Z" fill="white"/>
</svg>
